HIERARCHY
ROOT RootJoint
{
    OFFSET   0.000000   0.000000   0.000000
    CHANNELS 6 Xposition Yposition Zposition Xrotation Yrotation Zrotation
    JOINT pelvis_lowerback
    {
        OFFSET   0.000000   0.093605   0.000000
        CHANNELS 3 Xrotation Yrotation Zrotation
        JOINT lowerback_torso
        {
            OFFSET   0.000000   0.100000   0.000000
            CHANNELS 3 Xrotation Yrotation Zrotation
            JOINT torso_head
            {
                OFFSET   0.000000   0.282350   0.000000
                CHANNELS 3 Xrotation Yrotation Zrotation
                End Site
                {
                    OFFSET   0.000000   0.192650   0.000000
                }
            }
            JOINT rTorso_Clavicle
            {
                OFFSET  -0.001000   0.157500   0.000000
                CHANNELS 3 Xrotation Yrotation Zrotation
                JOINT rShoulder
                {
                    OFFSET  -0.117647   0.000000   0.000000
                    CHANNELS 3 Xrotation Yrotation Zrotation
                    JOINT rElbow
                    {
                        OFFSET  -0.245000   0.000000   0.000000
                        CHANNELS 3 Xrotation Yrotation Zrotation
                        JOINT rWrist
                        {
                            OFFSET  -0.240000   0.000000   0.000000
                            CHANNELS 3 Xrotation Yrotation Zrotation
                            End Site
                            {
                                OFFSET  -0.116353  -0.002500   0.000000
                            }
                        }
                    }
                }
            }
            JOINT lTorso_Clavicle
            {
                OFFSET   0.001000   0.157500   0.000000
                CHANNELS 3 Xrotation Yrotation Zrotation
                JOINT lShoulder
                {
                    OFFSET   0.117647   0.000000   0.000000
                    CHANNELS 3 Xrotation Yrotation Zrotation
                    JOINT lElbow
                    {
                        OFFSET   0.245000   0.000000   0.000000
                        CHANNELS 3 Xrotation Yrotation Zrotation
                        JOINT lWrist
                        {
                            OFFSET   0.240000   0.000000   0.000000
                            CHANNELS 3 Xrotation Yrotation Zrotation
                            End Site
                            {
                                OFFSET   0.116353  -0.002500   0.000000
                            }
                        }
                    }
                }
            }
        }
    }
    JOINT rHip
    {
        OFFSET  -0.100000  -0.051395   0.000000
        CHANNELS 3 Xrotation Yrotation Zrotation
        JOINT rKnee
        {
            OFFSET   0.000000  -0.410000   0.000000
            CHANNELS 3 Xrotation Yrotation Zrotation
            JOINT rAnkle
            {
                OFFSET   0.000000  -0.390000   0.000000
                CHANNELS 3 Xrotation Yrotation Zrotation
                JOINT rToeJoint
                {
                    OFFSET   0.000000  -0.050000   0.130000
                    CHANNELS 3 Xrotation Yrotation Zrotation
                    End Site
                    {
                        OFFSET  -0.010000   0.002000   0.060000
                    }
                }
            }
        }
    }
    JOINT lHip
    {
        OFFSET   0.100000  -0.051395   0.000000
        CHANNELS 3 Xrotation Yrotation Zrotation
        JOINT lKnee
        {
            OFFSET   0.000000  -0.410000   0.000000
            CHANNELS 3 Xrotation Yrotation Zrotation
            JOINT lAnkle
            {
                OFFSET   0.000000  -0.390000   0.000000
                CHANNELS 3 Xrotation Yrotation Zrotation
                JOINT lToeJoint
                {
                    OFFSET   0.000000  -0.050000   0.130000
                    CHANNELS 3 Xrotation Yrotation Zrotation
                    End Site
                    {
                        OFFSET   0.010000   0.002000   0.060000
                    }
                }
            }
        }
    }
}
MOTION
Frames: 12
Frame Time:   0.008333
 -2.367859   0.789169   3.970210 -10.600632 -14.831131  -1.985135  25.039300   0.641434  -3.611737  -8.061924  -2.898663   0.082756  -5.268511   0.937719  -0.520856  -9.695354   8.957395 -12.646708 -13.797387   8.294547  12.775228 -179.848365  79.341101 179.806701   0.770443   5.527638 -10.565435  -8.770876 -13.161523  16.430394 -21.440044  -8.543882  -3.636957  -0.217968 -83.033911  -0.176418  -2.559904  -7.168533  15.148592 -26.408375  -0.376802  -9.676948  66.850992  -0.001832   0.006564 -27.458385  -6.300511   0.469753  -2.948617   0.002709   0.007552 -24.692347   2.949266   9.027014  77.168465  -0.000267   0.002515 -22.840231   3.570515   3.423129 -10.320502  -0.008543   0.017769
 -2.365551   0.795784   3.972487 -10.319805 -15.188555  -1.670176  24.346286   0.791495  -3.855084  -7.709378  -2.845656   0.055297  -5.381800   0.884238  -0.398292 -10.099785   8.986650 -13.679394 -14.401625   8.163194  12.423896 -179.874688  78.992560 179.836358   0.593763   5.923186 -10.519691  -8.819001 -13.280454  17.608199 -22.638167  -8.634861  -3.266848  -0.149112 -82.799747  -0.119234  -2.600721  -7.976668  14.708429 -26.311914  -0.244458 -10.077551  65.824516  -0.001009   0.008797 -25.280731  -6.656902   1.526100  -5.142028   0.015380   0.021859 -24.369066   2.842769   8.256905  76.047601   0.004026   0.009703 -19.614964   3.982902   3.123001 -17.686563  -0.018408   0.052214
 -2.362939   0.804104   3.974427  -9.912275 -15.514217  -1.296440  23.626457   0.896396  -4.105809  -7.379885  -2.829869   0.006174  -5.450228   0.834702  -0.278016 -10.503979   8.926174 -14.748383 -14.961936   7.980779  12.025594 -179.897839  78.695747 179.862667   0.399103   6.169593 -10.407257  -8.924539 -13.328898  18.801505 -23.788829  -8.666926  -2.849533  -0.091548 -82.511299  -0.071811  -2.716450  -8.457860  14.387245 -26.185551  -0.132748 -10.499048  64.384866  -0.000567   0.011712 -22.731964  -6.920042   2.470132  -7.515618   0.022835   0.033480 -24.109254   2.742711   7.470381  74.550916   0.008205   0.017892 -16.287590   4.221846   2.772435 -23.632186  -0.034470   0.075056
 -2.360136   0.813459   3.976239  -9.422849 -15.821288  -0.874734  22.880293   0.976267  -4.369263  -7.107517  -2.837693  -0.064100  -5.490536   0.787683  -0.168084 -10.910438   8.830929 -15.821111 -15.495042   7.783772  11.603851 -179.916723  78.433053 179.884467   0.195897   6.306182 -10.317699  -9.059112 -13.347106  19.983381 -24.881342  -8.685278  -2.412318  -0.047426 -82.217894  -0.035823  -2.865110  -8.761982  14.150918 -25.983978  -0.025728 -10.931770  62.609442  -0.000727   0.014658 -20.052843  -7.122298   3.314318  -9.816628   0.025622   0.041248 -23.948809   2.681670   6.679911  72.902395   0.010847   0.025173 -12.878743   4.394529   2.411931 -28.129704  -0.047173   0.082374
 -2.357232   0.823348   3.978063  -8.891597 -16.129038  -0.415821  22.111624   1.045827  -4.649093  -6.897260  -2.856232  -0.156323  -5.515535   0.743499  -0.068278 -11.314880   8.731832 -16.882592 -16.006571   7.592436  11.172555 -179.931711  78.195982 179.902125  -0.008750   6.376917 -10.273119  -9.208403 -13.356839  21.140368 -25.915082  -8.706909  -1.970570  -0.014227 -81.931720  -0.008940  -3.025942  -8.975255  13.974034 -25.706071   0.079473 -11.376175  60.601584  -0.001298   0.017432 -17.334782  -7.279399   4.070848 -12.005671   0.025355   0.046080 -23.869861   2.657598   5.894459  71.215295   0.012128   0.030971  -9.403280   4.517236   2.048231 -31.415048  -0.053579   0.080654
 -2.354314   0.833419   3.979987  -8.345083 -16.450557   0.072911  21.324617   1.113350  -4.948709  -6.748074  -2.877452  -0.270444  -5.532794   0.702170   0.022375 -11.712078   8.643460 -17.921395 -16.497837   7.416678  10.741585 -179.943471  77.978576 179.916305  -0.209854   6.413088 -10.272803  -9.364208 -13.367040  22.262923 -26.890955  -8.737924  -1.533646   0.010445 -81.657941   0.010965  -3.189114  -9.139991  13.842120 -25.354704   0.161697 -11.803678  58.498721  -0.001414   0.019582 -14.635151  -7.374107   4.764222 -14.178758   0.024300   0.049064 -23.849897   2.665238   5.120021  69.545879   0.012515   0.035245  -5.875207   4.594293   1.684090 -33.753351  -0.054386   0.074557
 -2.351392   0.843379   3.982084  -7.808570 -16.814666   0.576496  20.527995   1.191698  -5.259233  -6.653844  -2.890017  -0.404841  -5.546351   0.663951   0.104337 -12.098223   8.575365 -18.933806 -16.970047   7.262216  10.315814 -179.952669  77.778182 179.927707  -0.405119   6.431170 -10.312399  -9.522560 -13.378196  23.344099 -27.810433  -8.777322  -1.107069   0.028575 -81.398067   0.025582  -3.350965  -9.273564  13.746577 -24.971886   0.217721 -12.235343  56.340847  -0.000903   0.022186 -11.966178  -7.480522   5.394989 -16.208484   0.022054   0.051976 -23.849725   2.701121   4.361953  67.927858   0.012539   0.038383  -2.420070   4.629847   1.335793 -35.110819  -0.050032   0.065721
 -2.349589   0.853752   3.984663  -7.325553 -17.449797   0.078162  19.229069   1.593671  -4.490880  -6.006802  -2.852100  -0.627397  -5.092365   0.611002  -0.046208 -11.992170   8.452916 -20.928657 -17.178895   7.025914   9.916536 -179.933853  78.554819 179.930616  -0.570300   7.084307 -10.378395  -9.084610 -12.675596  25.220600 -28.678731  -8.531621  -0.696812   0.042573 -80.705033   0.027615  -3.351079  -9.765687  13.708629 -24.614175   0.045684 -11.570945  54.151914   0.001251   0.023879  -8.488032  -7.465458   6.413081 -17.572419   0.023782   0.051234 -23.196513   2.644587   4.729550  65.594609   0.014053   0.042882   0.825467   4.792637   1.060020 -41.361423  -0.055169   0.072034
 -2.348508   0.864516   3.987354  -6.791773 -18.101206  -0.553222  17.865207   1.927739  -3.683920  -5.432108  -2.832743  -0.781999  -4.599229   0.552791  -0.184733 -11.908393   8.257824 -22.985573 -17.347310   6.753709   9.426138 -179.912788  79.383164 179.930115  -0.814429   7.230363 -10.092822  -8.754253 -11.895967  27.132121 -29.479745  -8.264543  -0.194805   0.058692 -80.002307   0.033280  -3.395947  -9.998242  13.406904 -24.395970  -0.198774 -10.755620  52.056498   0.003425   0.025637  -5.011202  -7.284668   7.390004 -16.821536   0.015110   0.036343 -22.347098   2.504171   5.247766  62.872648   0.016942   0.049247   3.972426   5.049777   0.787139 -48.272102  -0.057115   0.076179
 -2.348192   0.876555   3.989847  -6.292393 -18.655036  -1.039004  16.588909   2.136525  -3.082455  -4.942321  -2.882215  -0.979918  -4.129670   0.493798  -0.316600 -11.863062   8.008054 -24.916401 -17.504174   6.461382   8.942427 -179.896989  80.164975 179.929905  -1.070305   7.218460  -9.747297  -8.512606 -11.146256  28.949237 -30.251711  -8.024699   0.320962   0.073049 -79.342010   0.040979  -3.442518 -10.175750  13.142281 -24.099218  -0.465868  -9.955672  50.199397   0.006267   0.024413  -1.634240  -6.916980   8.315272 -14.440064  -0.003210   0.019470 -21.668188   2.365119   5.661675  60.471013   0.017770   0.051417   6.323397   5.280466   0.415353 -47.617823  -0.044071   0.060002
 -2.348495   0.889473   3.992374  -5.771615 -19.202563  -1.481661  15.292204   2.307171  -2.534715  -4.541740  -2.949937  -1.208589  -3.683241   0.438203  -0.451502 -11.846994   7.752375 -26.757019 -17.658457   6.176585   8.464465 -179.888134  80.903789 179.932595  -1.326836   7.142836  -9.412814  -8.326483 -10.433577  30.657636 -30.982369  -7.806443   0.818379   0.084857 -78.723048   0.048947  -3.493182 -10.321357  12.920166 -23.783046  -0.749196  -9.077535  48.529314   0.009461   0.022319   1.516986  -6.518388   9.160215 -12.183243  -0.018834   0.008739 -20.938974   2.230718   6.072435  57.835121   0.019030   0.054239   9.125791   5.520945   0.090613 -47.094395  -0.034610   0.046859
 -2.349272   0.902930   3.994965  -5.203522 -19.745412  -1.897987  13.963448   2.445472  -2.008920  -4.246762  -3.027478  -1.440227  -3.267499   0.385498  -0.581278 -11.860395   7.506469 -28.519923 -17.817241   5.907427   7.989739 -179.886018  81.600717 179.938687  -1.579157   7.030142  -9.130127  -8.184391  -9.763379  32.268390 -31.672892  -7.611425   1.296318   0.093989 -78.142532   0.056188  -3.547495 -10.439511  12.735460 -23.478693  -1.043875  -8.143850  47.012849   0.012313   0.020158   4.450455  -6.102622   9.928723 -10.120860  -0.030593   0.002349 -20.148099   2.088837   6.492408  54.953141   0.020659   0.058080  12.199595   5.776707  -0.211167 -46.675631  -0.027565   0.036374
